<svg xmlns="http://www.w3.org/2000/svg" xmlns:xlink="http://www.w3.org/1999/xlink" width="500" zoomAndPan="magnify" viewBox="0 0 375 374.999991" height="500" preserveAspectRatio="xMidYMid meet" version="1.0"><defs><clipPath id="ed05a20ced"><path d="M 4.425781 3.25 L 369 3.25 L 369 368 L 4.425781 368 Z M 4.425781 3.25 " clip-rule="nonzero"/></clipPath></defs><g clip-path="url(#ed05a20ced)"><path fill="#000000" d="M 240.15625 271.433594 L 329.980469 361.230469 C 338.875 370.121094 353.320312 370.121094 362.214844 361.226562 C 371.105469 352.328125 371.101562 337.886719 362.207031 328.992188 L 272.441406 239.257812 C 290.5 214.695312 301.171875 184.363281 301.171875 151.554688 C 301.171875 69.703125 234.71875 3.25 152.867188 3.25 C 71.015625 3.25 4.5625 69.703125 4.5625 151.554688 C 4.5625 233.40625 71.015625 299.859375 152.867188 299.859375 C 185.488281 299.859375 215.65625 289.308594 240.15625 271.433594 Z M 152.867188 48.832031 C 209.5625 48.832031 255.59375 94.859375 255.59375 151.554688 C 255.59375 208.25 209.5625 254.28125 152.867188 254.28125 C 96.171875 254.28125 50.144531 208.25 50.144531 151.554688 C 50.144531 94.859375 96.171875 48.832031 152.867188 48.832031 Z M 152.867188 48.832031 " fill-opacity="1" fill-rule="evenodd"/></g></svg>